<svg width="145" height="145" viewBox="0 0 145 145" fill="none" xmlns="http://www.w3.org/2000/svg">
<g clip-path="url(#clip0_125_64)">
<rect width="145" height="145" rx="27" fill="white" style="mix-blend-mode:lighten"/>
<path d="M45.4965 45.3974C59.2635 34.583 81.7411 38.67 95.568 56.272C109.395 73.8741 108.043 96.6801 94.2755 107.495C80.5084 118.309 58.0308 114.222 44.2039 96.62C30.3771 79.0179 31.7295 56.2119 45.4965 45.3974Z" stroke="#111E6C" stroke-width="6.82415"/>
<g clip-path="url(#clip1_125_64)">
<path d="M34.3875 39.4643C35.5941 39.5397 36.7707 39.8714 37.8397 40.436C38.9087 41.0006 39.8461 41.7856 40.5887 42.7397L50.869 55.9467C52.4768 58.014 53.0446 60.7077 52.409 63.2504L52.4081 63.2514L49.2752 75.7944V75.7973C49.054 76.6909 49.0667 77.6269 49.3123 78.5141C49.558 79.4012 50.0284 80.2102 50.6776 80.8627L50.6795 80.8657L64.7518 94.9379L64.7547 94.9399C65.4081 95.5904 66.2186 96.0614 67.1073 96.3071C67.9959 96.5526 68.9333 96.5649 69.828 96.3422L69.8289 96.3412L82.3631 93.2084L82.3641 93.2094C83.6194 92.8974 84.9295 92.8742 86.1952 93.1411C87.4608 93.4079 88.6502 93.9573 89.6727 94.7495L102.878 105.023C106.932 108.178 107.302 114.167 103.677 117.789L97.7538 123.711C93.8653 127.6 88.1084 129.257 82.7957 127.387L82.7948 127.386L81.4012 126.886C67.0421 121.612 54.0015 113.264 43.1961 102.419L43.1922 102.415L42.1512 101.363C31.4688 90.4159 23.3003 77.2639 18.2245 62.8227C16.3592 57.5153 18.0176 51.7522 21.9061 47.8637L27.827 41.9428C28.6825 41.0886 29.7098 40.4257 30.8407 39.9985C31.9717 39.5713 33.1809 39.3889 34.3875 39.4643Z" fill="#111E6C" stroke="white" stroke-width="2.92464"/>
</g>
<mask id="path-4-outside-1_125_64" maskUnits="userSpaceOnUse" x="48.8949" y="3.80052" width="84.9772" height="91.7495" fill="black">
<rect fill="white" x="48.8949" y="3.80052" width="84.9772" height="91.7495"/>
<path d="M113.6 80.7527C113.449 80.8558 113.29 80.9457 113.124 81.0214C112.948 81.1 112.765 81.1609 112.578 81.2031C112.394 81.2472 112.206 81.2744 112.017 81.2842C111.826 81.2975 111.635 81.2966 111.444 81.2814C111.245 81.2588 111.047 81.2186 110.855 81.1612C110.662 81.1054 110.475 81.0311 110.296 80.9394C110.123 80.8454 109.958 80.7375 109.803 80.6168C109.643 80.4878 109.498 80.3424 109.368 80.183L103.074 72.598L99.4916 78.2546C99.331 78.5132 99.157 78.7632 98.9704 79.0037C98.7817 79.2422 98.5906 79.464 98.3898 79.6586L98.3498 79.6987C98.1589 79.8958 97.9564 80.0814 97.7434 80.2545C97.5399 80.4207 97.3246 80.5721 97.0993 80.7074C96.9301 80.8169 96.7527 80.9132 96.5686 80.9954C96.3936 81.0782 96.2121 81.1465 96.0258 81.1995C95.8328 81.255 95.6361 81.2968 95.4373 81.3246C95.2481 81.3444 95.0578 81.351 94.8678 81.3442C94.6351 81.334 94.404 81.3005 94.178 81.2442C93.9565 81.1905 93.7417 81.1124 93.5376 81.0114C93.3334 80.9098 93.1395 80.7887 92.9588 80.6498C92.7777 80.4982 92.61 80.3315 92.4575 80.1514L92.3796 80.0484L92.3122 79.9383L91.3067 78.0912L91.293 77.9961L81.9284 40.202C81.856 39.9608 81.8197 39.7101 81.8208 39.4583C81.8293 39.2079 81.8765 38.9603 81.9608 38.7243C82.0952 38.3495 82.3197 38.0132 82.6146 37.7448C82.755 37.6146 82.9122 37.5035 83.0819 37.4146C83.2529 37.3212 83.4346 37.2489 83.6231 37.1993C83.8603 37.1375 84.1054 37.1116 84.3503 37.1226C84.6014 37.1357 84.8493 37.1844 85.0866 37.2673L85.2677 37.3325C93.5563 41.1805 101.279 44.7565 108.971 48.3197L120.625 53.7078C120.837 53.8041 121.043 53.9114 121.244 54.0293C121.423 54.1323 121.597 54.2465 121.762 54.3711L121.802 54.4054C121.966 54.5275 122.121 54.6615 122.266 54.8063C122.409 54.9414 122.539 55.0887 122.656 55.2467C122.801 55.4326 122.928 55.6323 123.034 55.8428C123.137 56.0447 123.217 56.257 123.274 56.476C123.332 56.6972 123.365 56.9242 123.372 57.1527C123.382 57.3812 123.372 57.6103 123.34 57.8368C123.276 58.2304 123.15 58.6111 122.965 58.9644C122.877 59.1455 122.773 59.3189 122.656 59.4829C122.536 59.6564 122.403 59.8207 122.258 59.9744C122.077 60.1735 121.882 60.3601 121.675 60.5326C121.453 60.7127 121.221 60.8797 120.98 61.0328C120.734 61.1883 120.453 61.3431 120.209 61.4755C119.938 61.6131 119.659 61.7353 119.375 61.8417C117.866 62.3683 116.373 62.9668 114.89 63.558L113.13 64.2522L119.384 71.8773C119.513 72.0402 119.627 72.2149 119.723 72.3992C120.01 72.947 120.13 73.5669 120.067 74.1821L120.075 74.2381C120.055 74.4251 120.019 74.61 119.966 74.7905C119.909 74.9756 119.838 75.1558 119.752 75.3296C119.663 75.5085 119.557 75.6786 119.436 75.8377C119.314 75.9964 119.179 76.144 119.031 76.2789L118.014 77.1625C116.617 78.447 115.143 79.6459 113.6 80.7527ZM78.1644 27.1584C78.5064 27.6308 78.6522 28.217 78.5712 28.7944C78.4902 29.3718 78.1888 29.8958 77.7298 30.257C77.2708 30.6181 76.6899 30.7885 76.1083 30.7325C75.5267 30.6765 74.9894 30.3984 74.6087 29.9564L68.9915 22.7759C68.6636 22.3034 68.5287 21.7238 68.614 21.1552C68.6994 20.5865 68.9988 20.0716 69.4512 19.7151C69.9036 19.3587 70.475 19.1875 71.0491 19.2365C71.6232 19.2854 72.1569 19.5509 72.5416 19.9787L78.1924 27.1543L78.1644 27.1584ZM73.5391 54.5299C74.013 54.2024 74.594 54.0673 75.1639 54.1521C75.7338 54.2369 76.2497 54.5353 76.6067 54.9863C76.9637 55.4374 77.1348 56.0074 77.0854 56.5802C77.0359 57.1531 76.7695 57.6857 76.3404 58.0698L69.1442 63.7124C68.6703 64.0399 68.0893 64.1749 67.5194 64.0901C66.9495 64.0053 66.4336 63.707 66.0766 63.2559C65.7196 62.8048 65.5485 62.2349 65.5979 61.6621C65.6474 61.0892 65.9138 60.5566 66.3429 60.1725L73.5391 54.5299ZM70.2438 39.9397C70.8204 40.0329 71.3384 40.3447 71.6897 40.81C72.0411 41.2753 72.1986 41.8582 72.1295 42.4369C72.0603 43.0156 71.7698 43.5455 71.3186 43.9159C70.8674 44.2863 70.2904 44.4686 69.7079 44.4248L60.6847 43.3321C60.1251 43.2254 59.6265 42.9123 59.2883 42.455C58.95 41.9978 58.7969 41.43 58.8596 40.865C58.9223 40.2999 59.196 39.779 59.6263 39.406C60.0566 39.0331 60.6119 38.8355 61.1814 38.8527L70.227 39.9421L70.2438 39.9397ZM104.794 35.7012C104.32 36.0287 103.739 36.1637 103.169 36.0789C102.599 35.9941 102.083 35.6958 101.726 35.2447C101.369 34.7936 101.198 34.2237 101.248 33.6508C101.297 33.078 101.563 32.5453 101.992 32.1613L109.189 26.5186C109.663 26.1912 110.244 26.0561 110.813 26.1409C111.383 26.2257 111.899 26.524 112.256 26.9751C112.613 27.4262 112.784 27.9962 112.735 28.569C112.685 29.1418 112.419 29.6745 111.99 30.0585L104.794 35.7012ZM92.7341 25.6845C92.7192 25.9943 92.6406 26.2978 92.5032 26.576C92.3657 26.8543 92.1724 27.1014 91.9351 27.3019C91.6979 27.5025 91.4219 27.6523 91.1242 27.7419C90.8265 27.8315 90.5136 27.859 90.2049 27.8228C89.8962 27.7865 89.5984 27.6873 89.3298 27.5313C89.0613 27.3752 88.8279 27.1657 88.6441 26.9157C88.4603 26.6657 88.33 26.3806 88.2614 26.0782C88.1928 25.7758 88.1874 25.4624 88.2454 25.1577L89.3003 16.15C89.4076 15.5916 89.7219 15.0939 90.1804 14.7562C90.6389 14.4184 91.2081 14.2653 91.7744 14.3274C92.3408 14.3895 92.8627 14.6623 93.2362 15.0913C93.6097 15.5204 93.8074 16.0742 93.7898 16.6424L92.7341 25.6845ZM111.836 77.9362L116.783 73.875C114.434 71.0062 110.726 67.0151 108.78 64.0879C108.742 64.027 108.71 63.9629 108.683 63.8963C108.555 63.5607 108.565 63.1876 108.711 62.8591C108.858 62.5306 109.13 62.2736 109.466 62.1446C112.382 61.0204 115.372 59.9257 118.257 58.7433C118.591 58.6164 118.913 58.4589 119.219 58.273C119.463 58.1225 119.686 57.9425 119.886 57.737C119.953 57.6608 120.014 57.5795 120.068 57.4937C120.095 57.4485 120.115 57.3994 120.127 57.3481L120.079 57.2523C119.997 57.1504 119.899 57.0624 119.789 56.9916C119.626 56.8812 119.453 56.7858 119.273 56.7066L85.5774 41.0958C88.4882 52.8698 92.06 65.3361 94.4765 77.096C94.5222 77.2821 94.583 77.4643 94.6583 77.6406C94.7106 77.7564 94.7764 77.8657 94.8542 77.9663L94.9384 78.034C94.9934 78.0341 95.0482 78.0262 95.1009 78.0105C95.1959 77.974 95.287 77.9283 95.3731 77.8741C95.6141 77.7217 95.8339 77.5383 96.0267 77.3285C96.2668 77.0628 96.484 76.7774 96.6759 76.4752C97.5742 75.0493 101.075 68.9077 102 68.1802C102.279 67.955 102.636 67.8489 102.993 67.885C103.35 67.921 103.678 68.0964 103.905 68.3728L111.835 77.9306L111.836 77.9362Z"/>
<path d="M111.836 77.9362L116.783 73.875C114.434 71.0062 110.726 67.0151 108.78 64.0879C108.742 64.027 108.71 63.9629 108.683 63.8963C108.555 63.5607 108.565 63.1876 108.711 62.8591C108.858 62.5306 109.13 62.2736 109.466 62.1446C112.382 61.0204 115.372 59.9257 118.257 58.7433C118.591 58.6164 118.913 58.4589 119.219 58.273C119.463 58.1225 119.686 57.9425 119.886 57.737C119.953 57.6608 120.014 57.5795 120.068 57.4937C120.095 57.4485 120.115 57.3994 120.127 57.3481L120.079 57.2523C119.997 57.1504 119.899 57.0624 119.789 56.9916C119.626 56.8812 119.453 56.7858 119.273 56.7066L85.5774 41.0958C88.4882 52.8698 92.06 65.3361 94.4765 77.096C94.5222 77.2821 94.583 77.4643 94.6583 77.6406C94.7106 77.7564 94.7764 77.8657 94.8542 77.9663L94.9384 78.034C94.9934 78.0341 95.0482 78.0262 95.1009 78.0105C95.1959 77.974 95.287 77.9283 95.3731 77.8741C95.6141 77.7217 95.8339 77.5383 96.0267 77.3285C96.2668 77.0628 96.484 76.7774 96.6759 76.4752C97.5742 75.0493 101.075 68.9077 102 68.1802C102.279 67.955 102.636 67.8489 102.993 67.885C103.35 67.921 103.678 68.0964 103.905 68.3728L111.835 77.9306L111.836 77.9362Z"/>
</mask>
<path d="M113.6 80.7527C113.449 80.8558 113.29 80.9457 113.124 81.0214C112.948 81.1 112.765 81.1609 112.578 81.2031C112.394 81.2472 112.206 81.2744 112.017 81.2842C111.826 81.2975 111.635 81.2966 111.444 81.2814C111.245 81.2588 111.047 81.2186 110.855 81.1612C110.662 81.1054 110.475 81.0311 110.296 80.9394C110.123 80.8454 109.958 80.7375 109.803 80.6168C109.643 80.4878 109.498 80.3424 109.368 80.183L103.074 72.598L99.4916 78.2546C99.331 78.5132 99.157 78.7632 98.9704 79.0037C98.7817 79.2422 98.5906 79.464 98.3898 79.6586L98.3498 79.6987C98.1589 79.8958 97.9564 80.0814 97.7434 80.2545C97.5399 80.4207 97.3246 80.5721 97.0993 80.7074C96.9301 80.8169 96.7527 80.9132 96.5686 80.9954C96.3936 81.0782 96.2121 81.1465 96.0258 81.1995C95.8328 81.255 95.6361 81.2968 95.4373 81.3246C95.2481 81.3444 95.0578 81.351 94.8678 81.3442C94.6351 81.334 94.404 81.3005 94.178 81.2442C93.9565 81.1905 93.7417 81.1124 93.5376 81.0114C93.3334 80.9098 93.1395 80.7887 92.9588 80.6498C92.7777 80.4982 92.61 80.3315 92.4575 80.1514L92.3796 80.0484L92.3122 79.9383L91.3067 78.0912L91.293 77.9961L81.9284 40.202C81.856 39.9608 81.8197 39.7101 81.8208 39.4583C81.8293 39.2079 81.8765 38.9603 81.9608 38.7243C82.0952 38.3495 82.3197 38.0132 82.6146 37.7448C82.755 37.6146 82.9122 37.5035 83.0819 37.4146C83.2529 37.3212 83.4346 37.2489 83.6231 37.1993C83.8603 37.1375 84.1054 37.1116 84.3503 37.1226C84.6014 37.1357 84.8493 37.1844 85.0866 37.2673L85.2677 37.3325C93.5563 41.1805 101.279 44.7565 108.971 48.3197L120.625 53.7078C120.837 53.8041 121.043 53.9114 121.244 54.0293C121.423 54.1323 121.597 54.2465 121.762 54.3711L121.802 54.4054C121.966 54.5275 122.121 54.6615 122.266 54.8063C122.409 54.9414 122.539 55.0887 122.656 55.2467C122.801 55.4326 122.928 55.6323 123.034 55.8428C123.137 56.0447 123.217 56.257 123.274 56.476C123.332 56.6972 123.365 56.9242 123.372 57.1527C123.382 57.3812 123.372 57.6103 123.34 57.8368C123.276 58.2304 123.15 58.6111 122.965 58.9644C122.877 59.1455 122.773 59.3189 122.656 59.4829C122.536 59.6564 122.403 59.8207 122.258 59.9744C122.077 60.1735 121.882 60.3601 121.675 60.5326C121.453 60.7127 121.221 60.8797 120.98 61.0328C120.734 61.1883 120.453 61.3431 120.209 61.4755C119.938 61.6131 119.659 61.7353 119.375 61.8417C117.866 62.3683 116.373 62.9668 114.89 63.558L113.13 64.2522L119.384 71.8773C119.513 72.0402 119.627 72.2149 119.723 72.3992C120.01 72.947 120.13 73.5669 120.067 74.1821L120.075 74.2381C120.055 74.4251 120.019 74.61 119.966 74.7905C119.909 74.9756 119.838 75.1558 119.752 75.3296C119.663 75.5085 119.557 75.6786 119.436 75.8377C119.314 75.9964 119.179 76.144 119.031 76.2789L118.014 77.1625C116.617 78.447 115.143 79.6459 113.6 80.7527ZM78.1644 27.1584C78.5064 27.6308 78.6522 28.217 78.5712 28.7944C78.4902 29.3718 78.1888 29.8958 77.7298 30.257C77.2708 30.6181 76.6899 30.7885 76.1083 30.7325C75.5267 30.6765 74.9894 30.3984 74.6087 29.9564L68.9915 22.7759C68.6636 22.3034 68.5287 21.7238 68.614 21.1552C68.6994 20.5865 68.9988 20.0716 69.4512 19.7151C69.9036 19.3587 70.475 19.1875 71.0491 19.2365C71.6232 19.2854 72.1569 19.5509 72.5416 19.9787L78.1924 27.1543L78.1644 27.1584ZM73.5391 54.5299C74.013 54.2024 74.594 54.0673 75.1639 54.1521C75.7338 54.2369 76.2497 54.5353 76.6067 54.9863C76.9637 55.4374 77.1348 56.0074 77.0854 56.5802C77.0359 57.1531 76.7695 57.6857 76.3404 58.0698L69.1442 63.7124C68.6703 64.0399 68.0893 64.1749 67.5194 64.0901C66.9495 64.0053 66.4336 63.707 66.0766 63.2559C65.7196 62.8048 65.5485 62.2349 65.5979 61.6621C65.6474 61.0892 65.9138 60.5566 66.3429 60.1725L73.5391 54.5299ZM70.2438 39.9397C70.8204 40.0329 71.3384 40.3447 71.6897 40.81C72.0411 41.2753 72.1986 41.8582 72.1295 42.4369C72.0603 43.0156 71.7698 43.5455 71.3186 43.9159C70.8674 44.2863 70.2904 44.4686 69.7079 44.4248L60.6847 43.3321C60.1251 43.2254 59.6265 42.9123 59.2883 42.455C58.95 41.9978 58.7969 41.43 58.8596 40.865C58.9223 40.2999 59.196 39.779 59.6263 39.406C60.0566 39.0331 60.6119 38.8355 61.1814 38.8527L70.227 39.9421L70.2438 39.9397ZM104.794 35.7012C104.32 36.0287 103.739 36.1637 103.169 36.0789C102.599 35.9941 102.083 35.6958 101.726 35.2447C101.369 34.7936 101.198 34.2237 101.248 33.6508C101.297 33.078 101.563 32.5453 101.992 32.1613L109.189 26.5186C109.663 26.1912 110.244 26.0561 110.813 26.1409C111.383 26.2257 111.899 26.524 112.256 26.9751C112.613 27.4262 112.784 27.9962 112.735 28.569C112.685 29.1418 112.419 29.6745 111.99 30.0585L104.794 35.7012ZM92.7341 25.6845C92.7192 25.9943 92.6406 26.2978 92.5032 26.576C92.3657 26.8543 92.1724 27.1014 91.9351 27.3019C91.6979 27.5025 91.4219 27.6523 91.1242 27.7419C90.8265 27.8315 90.5136 27.859 90.2049 27.8228C89.8962 27.7865 89.5984 27.6873 89.3298 27.5313C89.0613 27.3752 88.8279 27.1657 88.6441 26.9157C88.4603 26.6657 88.33 26.3806 88.2614 26.0782C88.1928 25.7758 88.1874 25.4624 88.2454 25.1577L89.3003 16.15C89.4076 15.5916 89.7219 15.0939 90.1804 14.7562C90.6389 14.4184 91.2081 14.2653 91.7744 14.3274C92.3408 14.3895 92.8627 14.6623 93.2362 15.0913C93.6097 15.5204 93.8074 16.0742 93.7898 16.6424L92.7341 25.6845ZM111.836 77.9362L116.783 73.875C114.434 71.0062 110.726 67.0151 108.78 64.0879C108.742 64.027 108.71 63.9629 108.683 63.8963C108.555 63.5607 108.565 63.1876 108.711 62.8591C108.858 62.5306 109.13 62.2736 109.466 62.1446C112.382 61.0204 115.372 59.9257 118.257 58.7433C118.591 58.6164 118.913 58.4589 119.219 58.273C119.463 58.1225 119.686 57.9425 119.886 57.737C119.953 57.6608 120.014 57.5795 120.068 57.4937C120.095 57.4485 120.115 57.3994 120.127 57.3481L120.079 57.2523C119.997 57.1504 119.899 57.0624 119.789 56.9916C119.626 56.8812 119.453 56.7858 119.273 56.7066L85.5774 41.0958C88.4882 52.8698 92.06 65.3361 94.4765 77.096C94.5222 77.2821 94.583 77.4643 94.6583 77.6406C94.7106 77.7564 94.7764 77.8657 94.8542 77.9663L94.9384 78.034C94.9934 78.0341 95.0482 78.0262 95.1009 78.0105C95.1959 77.974 95.287 77.9283 95.3731 77.8741C95.6141 77.7217 95.8339 77.5383 96.0267 77.3285C96.2668 77.0628 96.484 76.7774 96.6759 76.4752C97.5742 75.0493 101.075 68.9077 102 68.1802C102.279 67.955 102.636 67.8489 102.993 67.885C103.35 67.921 103.678 68.0964 103.905 68.3728L111.835 77.9306L111.836 77.9362Z" fill="#111E6C"/>
<path d="M111.836 77.9362L116.783 73.875C114.434 71.0062 110.726 67.0151 108.78 64.0879C108.742 64.027 108.71 63.9629 108.683 63.8963C108.555 63.5607 108.565 63.1876 108.711 62.8591C108.858 62.5306 109.13 62.2736 109.466 62.1446C112.382 61.0204 115.372 59.9257 118.257 58.7433C118.591 58.6164 118.913 58.4589 119.219 58.273C119.463 58.1225 119.686 57.9425 119.886 57.737C119.953 57.6608 120.014 57.5795 120.068 57.4937C120.095 57.4485 120.115 57.3994 120.127 57.3481L120.079 57.2523C119.997 57.1504 119.899 57.0624 119.789 56.9916C119.626 56.8812 119.453 56.7858 119.273 56.7066L85.5774 41.0958C88.4882 52.8698 92.06 65.3361 94.4765 77.096C94.5222 77.2821 94.583 77.4643 94.6583 77.6406C94.7106 77.7564 94.7764 77.8657 94.8542 77.9663L94.9384 78.034C94.9934 78.0341 95.0482 78.0262 95.1009 78.0105C95.1959 77.974 95.287 77.9283 95.3731 77.8741C95.6141 77.7217 95.8339 77.5383 96.0267 77.3285C96.2668 77.0628 96.484 76.7774 96.6759 76.4752C97.5742 75.0493 101.075 68.9077 102 68.1802C102.279 67.955 102.636 67.8489 102.993 67.885C103.35 67.921 103.678 68.0964 103.905 68.3728L111.835 77.9306L111.836 77.9362Z" fill="white"/>
<path d="M113.6 80.7527C113.449 80.8558 113.29 80.9457 113.124 81.0214C112.948 81.1 112.765 81.1609 112.578 81.2031C112.394 81.2472 112.206 81.2744 112.017 81.2842C111.826 81.2975 111.635 81.2966 111.444 81.2814C111.245 81.2588 111.047 81.2186 110.855 81.1612C110.662 81.1054 110.475 81.0311 110.296 80.9394C110.123 80.8454 109.958 80.7375 109.803 80.6168C109.643 80.4878 109.498 80.3424 109.368 80.183L103.074 72.598L99.4916 78.2546C99.331 78.5132 99.157 78.7632 98.9704 79.0037C98.7817 79.2422 98.5906 79.464 98.3898 79.6586L98.3498 79.6987C98.1589 79.8958 97.9564 80.0814 97.7434 80.2545C97.5399 80.4207 97.3246 80.5721 97.0993 80.7074C96.9301 80.8169 96.7527 80.9132 96.5686 80.9954C96.3936 81.0782 96.2121 81.1465 96.0258 81.1995C95.8328 81.255 95.6361 81.2968 95.4373 81.3246C95.2481 81.3444 95.0578 81.351 94.8678 81.3442C94.6351 81.334 94.404 81.3005 94.178 81.2442C93.9565 81.1905 93.7417 81.1124 93.5376 81.0114C93.3334 80.9098 93.1395 80.7887 92.9588 80.6498C92.7777 80.4982 92.61 80.3315 92.4575 80.1514L92.3796 80.0484L92.3122 79.9383L91.3067 78.0912L91.293 77.9961L81.9284 40.202C81.856 39.9608 81.8197 39.7101 81.8208 39.4583C81.8293 39.2079 81.8765 38.9603 81.9608 38.7243C82.0952 38.3495 82.3197 38.0132 82.6146 37.7448C82.755 37.6146 82.9122 37.5035 83.0819 37.4146C83.2529 37.3212 83.4346 37.2489 83.6231 37.1993C83.8603 37.1375 84.1054 37.1116 84.3503 37.1226C84.6014 37.1357 84.8493 37.1844 85.0866 37.2673L85.2677 37.3325C93.5563 41.1805 101.279 44.7565 108.971 48.3197L120.625 53.7078C120.837 53.8041 121.043 53.9114 121.244 54.0293C121.423 54.1323 121.597 54.2465 121.762 54.3711L121.802 54.4054C121.966 54.5275 122.121 54.6615 122.266 54.8063C122.409 54.9414 122.539 55.0887 122.656 55.2467C122.801 55.4326 122.928 55.6323 123.034 55.8428C123.137 56.0447 123.217 56.257 123.274 56.476C123.332 56.6972 123.365 56.9242 123.372 57.1527C123.382 57.3812 123.372 57.6103 123.34 57.8368C123.276 58.2304 123.15 58.6111 122.965 58.9644C122.877 59.1455 122.773 59.3189 122.656 59.4829C122.536 59.6564 122.403 59.8207 122.258 59.9744C122.077 60.1735 121.882 60.3601 121.675 60.5326C121.453 60.7127 121.221 60.8797 120.98 61.0328C120.734 61.1883 120.453 61.3431 120.209 61.4755C119.938 61.6131 119.659 61.7353 119.375 61.8417C117.866 62.3683 116.373 62.9668 114.89 63.558L113.13 64.2522L119.384 71.8773C119.513 72.0402 119.627 72.2149 119.723 72.3992C120.01 72.947 120.13 73.5669 120.067 74.1821L120.075 74.2381C120.055 74.4251 120.019 74.61 119.966 74.7905C119.909 74.9756 119.838 75.1558 119.752 75.3296C119.663 75.5085 119.557 75.6786 119.436 75.8377C119.314 75.9964 119.179 76.144 119.031 76.2789L118.014 77.1625C116.617 78.447 115.143 79.6459 113.6 80.7527ZM78.1644 27.1584C78.5064 27.6308 78.6522 28.217 78.5712 28.7944C78.4902 29.3718 78.1888 29.8958 77.7298 30.257C77.2708 30.6181 76.6899 30.7885 76.1083 30.7325C75.5267 30.6765 74.9894 30.3984 74.6087 29.9564L68.9915 22.7759C68.6636 22.3034 68.5287 21.7238 68.614 21.1552C68.6994 20.5865 68.9988 20.0716 69.4512 19.7151C69.9036 19.3587 70.475 19.1875 71.0491 19.2365C71.6232 19.2854 72.1569 19.5509 72.5416 19.9787L78.1924 27.1543L78.1644 27.1584ZM73.5391 54.5299C74.013 54.2024 74.594 54.0673 75.1639 54.1521C75.7338 54.2369 76.2497 54.5353 76.6067 54.9863C76.9637 55.4374 77.1348 56.0074 77.0854 56.5802C77.0359 57.1531 76.7695 57.6857 76.3404 58.0698L69.1442 63.7124C68.6703 64.0399 68.0893 64.1749 67.5194 64.0901C66.9495 64.0053 66.4336 63.707 66.0766 63.2559C65.7196 62.8048 65.5485 62.2349 65.5979 61.6621C65.6474 61.0892 65.9138 60.5566 66.3429 60.1725L73.5391 54.5299ZM70.2438 39.9397C70.8204 40.0329 71.3384 40.3447 71.6897 40.81C72.0411 41.2753 72.1986 41.8582 72.1295 42.4369C72.0603 43.0156 71.7698 43.5455 71.3186 43.9159C70.8674 44.2863 70.2904 44.4686 69.7079 44.4248L60.6847 43.3321C60.1251 43.2254 59.6265 42.9123 59.2883 42.455C58.95 41.9978 58.7969 41.43 58.8596 40.865C58.9223 40.2999 59.196 39.779 59.6263 39.406C60.0566 39.0331 60.6119 38.8355 61.1814 38.8527L70.227 39.9421L70.2438 39.9397ZM104.794 35.7012C104.32 36.0287 103.739 36.1637 103.169 36.0789C102.599 35.9941 102.083 35.6958 101.726 35.2447C101.369 34.7936 101.198 34.2237 101.248 33.6508C101.297 33.078 101.563 32.5453 101.992 32.1613L109.189 26.5186C109.663 26.1912 110.244 26.0561 110.813 26.1409C111.383 26.2257 111.899 26.524 112.256 26.9751C112.613 27.4262 112.784 27.9962 112.735 28.569C112.685 29.1418 112.419 29.6745 111.99 30.0585L104.794 35.7012ZM92.7341 25.6845C92.7192 25.9943 92.6406 26.2978 92.5032 26.576C92.3657 26.8543 92.1724 27.1014 91.9351 27.3019C91.6979 27.5025 91.4219 27.6523 91.1242 27.7419C90.8265 27.8315 90.5136 27.859 90.2049 27.8228C89.8962 27.7865 89.5984 27.6873 89.3298 27.5313C89.0613 27.3752 88.8279 27.1657 88.6441 26.9157C88.4603 26.6657 88.33 26.3806 88.2614 26.0782C88.1928 25.7758 88.1874 25.4624 88.2454 25.1577L89.3003 16.15C89.4076 15.5916 89.7219 15.0939 90.1804 14.7562C90.6389 14.4184 91.2081 14.2653 91.7744 14.3274C92.3408 14.3895 92.8627 14.6623 93.2362 15.0913C93.6097 15.5204 93.8074 16.0742 93.7898 16.6424L92.7341 25.6845ZM111.836 77.9362L116.783 73.875C114.434 71.0062 110.726 67.0151 108.78 64.0879C108.742 64.027 108.71 63.9629 108.683 63.8963C108.555 63.5607 108.565 63.1876 108.711 62.8591C108.858 62.5306 109.13 62.2736 109.466 62.1446C112.382 61.0204 115.372 59.9257 118.257 58.7433C118.591 58.6164 118.913 58.4589 119.219 58.273C119.463 58.1225 119.686 57.9425 119.886 57.737C119.953 57.6608 120.014 57.5795 120.068 57.4937C120.095 57.4485 120.115 57.3994 120.127 57.3481L120.079 57.2523C119.997 57.1504 119.899 57.0624 119.789 56.9916C119.626 56.8812 119.453 56.7858 119.273 56.7066L85.5774 41.0958C88.4882 52.8698 92.06 65.3361 94.4765 77.096C94.5222 77.2821 94.583 77.4643 94.6583 77.6406C94.7106 77.7564 94.7764 77.8657 94.8542 77.9663L94.9384 78.034C94.9934 78.0341 95.0482 78.0262 95.1009 78.0105C95.1959 77.974 95.287 77.9283 95.3731 77.8741C95.6141 77.7217 95.8339 77.5383 96.0267 77.3285C96.2668 77.0628 96.484 76.7774 96.6759 76.4752C97.5742 75.0493 101.075 68.9077 102 68.1802C102.279 67.955 102.636 67.8489 102.993 67.885C103.35 67.921 103.678 68.0964 103.905 68.3728L111.835 77.9306L111.836 77.9362Z" stroke="white" stroke-width="11.6985" mask="url(#path-4-outside-1_125_64)"/>
<path d="M111.836 77.9362L116.783 73.875C114.434 71.0062 110.726 67.0151 108.78 64.0879C108.742 64.027 108.71 63.9629 108.683 63.8963C108.555 63.5607 108.565 63.1876 108.711 62.8591C108.858 62.5306 109.13 62.2736 109.466 62.1446C112.382 61.0204 115.372 59.9257 118.257 58.7433C118.591 58.6164 118.913 58.4589 119.219 58.273C119.463 58.1225 119.686 57.9425 119.886 57.737C119.953 57.6608 120.014 57.5795 120.068 57.4937C120.095 57.4485 120.115 57.3994 120.127 57.3481L120.079 57.2523C119.997 57.1504 119.899 57.0624 119.789 56.9916C119.626 56.8812 119.453 56.7858 119.273 56.7066L85.5774 41.0958C88.4882 52.8698 92.06 65.3361 94.4765 77.096C94.5222 77.2821 94.583 77.4643 94.6583 77.6406C94.7106 77.7564 94.7764 77.8657 94.8542 77.9663L94.9384 78.034C94.9934 78.0341 95.0482 78.0262 95.1009 78.0105C95.1959 77.974 95.287 77.9283 95.3731 77.8741C95.6141 77.7217 95.8339 77.5383 96.0267 77.3285C96.2668 77.0628 96.484 76.7774 96.6759 76.4752C97.5742 75.0493 101.075 68.9077 102 68.1802C102.279 67.955 102.636 67.8489 102.993 67.885C103.35 67.921 103.678 68.0964 103.905 68.3728L111.835 77.9306L111.836 77.9362Z" stroke="white" stroke-width="11.6985" mask="url(#path-4-outside-1_125_64)"/>
<mask id="path-5-outside-2_125_64" maskUnits="userSpaceOnUse" x="54.5593" y="9.46484" width="73.6485" height="80.4208" fill="black">
<rect fill="white" x="54.5593" y="9.46484" width="73.6485" height="80.4208"/>
<path d="M113.6 80.7527C113.449 80.8558 113.29 80.9457 113.124 81.0214C112.948 81.1 112.765 81.1609 112.578 81.2031C112.394 81.2472 112.206 81.2744 112.017 81.2842C111.826 81.2975 111.635 81.2966 111.444 81.2814C111.245 81.2588 111.047 81.2186 110.855 81.1612C110.662 81.1054 110.475 81.0311 110.296 80.9394C110.123 80.8454 109.958 80.7375 109.803 80.6168C109.643 80.4878 109.498 80.3424 109.368 80.183L103.074 72.598L99.4916 78.2546C99.331 78.5132 99.157 78.7632 98.9704 79.0037C98.7817 79.2422 98.5906 79.464 98.3898 79.6586L98.3498 79.6987C98.1589 79.8958 97.9564 80.0814 97.7434 80.2545C97.5399 80.4207 97.3246 80.5721 97.0993 80.7074C96.9301 80.8169 96.7527 80.9132 96.5686 80.9954C96.3936 81.0782 96.2121 81.1465 96.0258 81.1995C95.8328 81.255 95.6361 81.2968 95.4373 81.3246C95.2481 81.3444 95.0578 81.351 94.8678 81.3442C94.6351 81.334 94.404 81.3005 94.178 81.2442C93.9565 81.1905 93.7417 81.1124 93.5376 81.0114C93.3334 80.9098 93.1395 80.7887 92.9588 80.6498C92.7777 80.4982 92.61 80.3315 92.4575 80.1514L92.3796 80.0484L92.3122 79.9383L91.3067 78.0912L91.293 77.9961L81.9284 40.202C81.856 39.9608 81.8197 39.7101 81.8208 39.4583C81.8293 39.2079 81.8765 38.9603 81.9608 38.7243C82.0952 38.3495 82.3197 38.0132 82.6146 37.7448C82.755 37.6146 82.9122 37.5035 83.0819 37.4146C83.2529 37.3212 83.4346 37.2489 83.6231 37.1993C83.8603 37.1375 84.1054 37.1116 84.3503 37.1226C84.6014 37.1357 84.8493 37.1844 85.0866 37.2673L85.2677 37.3325C93.5563 41.1805 101.279 44.7565 108.971 48.3197L120.625 53.7078C120.837 53.8041 121.043 53.9114 121.244 54.0293C121.423 54.1323 121.597 54.2465 121.762 54.3711L121.802 54.4054C121.966 54.5275 122.121 54.6615 122.266 54.8063C122.409 54.9414 122.539 55.0887 122.656 55.2467C122.801 55.4326 122.928 55.6323 123.034 55.8428C123.137 56.0447 123.217 56.257 123.274 56.476C123.332 56.6972 123.365 56.9242 123.372 57.1527C123.382 57.3812 123.372 57.6103 123.34 57.8368C123.276 58.2304 123.15 58.6111 122.965 58.9644C122.877 59.1455 122.773 59.3189 122.656 59.4829C122.536 59.6564 122.403 59.8207 122.258 59.9744C122.077 60.1735 121.882 60.3601 121.675 60.5326C121.453 60.7127 121.221 60.8797 120.98 61.0328C120.734 61.1883 120.453 61.3431 120.209 61.4755C119.938 61.6131 119.659 61.7353 119.375 61.8417C117.866 62.3683 116.373 62.9668 114.89 63.558L113.13 64.2522L119.384 71.8773C119.513 72.0402 119.627 72.2149 119.723 72.3992C120.01 72.947 120.13 73.5669 120.067 74.1821L120.075 74.2381C120.055 74.4251 120.019 74.61 119.966 74.7905C119.909 74.9756 119.838 75.1558 119.752 75.3296C119.663 75.5085 119.557 75.6786 119.436 75.8377C119.314 75.9964 119.179 76.144 119.031 76.2789L118.014 77.1625C116.617 78.447 115.143 79.6459 113.6 80.7527ZM78.1644 27.1584C78.5064 27.6308 78.6522 28.217 78.5712 28.7944C78.4902 29.3718 78.1888 29.8958 77.7298 30.257C77.2708 30.6181 76.6899 30.7885 76.1083 30.7325C75.5267 30.6765 74.9894 30.3984 74.6087 29.9564L68.9915 22.7759C68.6636 22.3034 68.5287 21.7238 68.614 21.1552C68.6994 20.5865 68.9988 20.0716 69.4512 19.7151C69.9036 19.3587 70.475 19.1875 71.0491 19.2365C71.6232 19.2854 72.1569 19.5509 72.5416 19.9787L78.1924 27.1543L78.1644 27.1584ZM73.5391 54.5299C74.013 54.2024 74.594 54.0673 75.1639 54.1521C75.7338 54.2369 76.2497 54.5353 76.6067 54.9863C76.9637 55.4374 77.1348 56.0074 77.0854 56.5802C77.0359 57.1531 76.7695 57.6857 76.3404 58.0698L69.1442 63.7124C68.6703 64.0399 68.0893 64.1749 67.5194 64.0901C66.9495 64.0053 66.4336 63.707 66.0766 63.2559C65.7196 62.8048 65.5485 62.2349 65.5979 61.6621C65.6474 61.0892 65.9138 60.5566 66.3429 60.1725L73.5391 54.5299ZM70.2438 39.9397C70.8204 40.0329 71.3384 40.3447 71.6897 40.81C72.0411 41.2753 72.1986 41.8582 72.1295 42.4369C72.0603 43.0156 71.7698 43.5455 71.3186 43.9159C70.8674 44.2863 70.2904 44.4686 69.7079 44.4248L60.6847 43.3321C60.1251 43.2254 59.6265 42.9123 59.2883 42.455C58.95 41.9978 58.7969 41.43 58.8596 40.865C58.9223 40.2999 59.196 39.779 59.6263 39.406C60.0566 39.0331 60.6119 38.8355 61.1814 38.8527L70.227 39.9421L70.2438 39.9397ZM104.794 35.7012C104.32 36.0287 103.739 36.1637 103.169 36.0789C102.599 35.9941 102.083 35.6958 101.726 35.2447C101.369 34.7936 101.198 34.2237 101.248 33.6508C101.297 33.078 101.563 32.5453 101.992 32.1613L109.189 26.5186C109.663 26.1912 110.244 26.0561 110.813 26.1409C111.383 26.2257 111.899 26.524 112.256 26.9751C112.613 27.4262 112.784 27.9962 112.735 28.569C112.685 29.1418 112.419 29.6745 111.99 30.0585L104.794 35.7012ZM92.7341 25.6845C92.7192 25.9943 92.6406 26.2978 92.5032 26.576C92.3657 26.8543 92.1724 27.1014 91.9351 27.3019C91.6979 27.5025 91.4219 27.6523 91.1242 27.7419C90.8265 27.8315 90.5136 27.859 90.2049 27.8228C89.8962 27.7865 89.5984 27.6873 89.3298 27.5313C89.0613 27.3752 88.8279 27.1657 88.6441 26.9157C88.4603 26.6657 88.33 26.3806 88.2614 26.0782C88.1928 25.7758 88.1874 25.4624 88.2454 25.1577L89.3003 16.15C89.4076 15.5916 89.7219 15.0939 90.1804 14.7562C90.6389 14.4184 91.2081 14.2653 91.7744 14.3274C92.3408 14.3895 92.8627 14.6623 93.2362 15.0913C93.6097 15.5204 93.8074 16.0742 93.7898 16.6424L92.7341 25.6845ZM111.836 77.9362L116.783 73.875C114.434 71.0062 110.726 67.0151 108.78 64.0879C108.742 64.027 108.71 63.9629 108.683 63.8963C108.555 63.5607 108.565 63.1876 108.711 62.8591C108.858 62.5306 109.13 62.2736 109.466 62.1446C112.382 61.0204 115.372 59.9257 118.257 58.7433C118.591 58.6164 118.913 58.4589 119.219 58.273C119.463 58.1225 119.686 57.9425 119.886 57.737C119.953 57.6608 120.014 57.5795 120.068 57.4937C120.095 57.4485 120.115 57.3994 120.127 57.3481L120.079 57.2523C119.997 57.1504 119.899 57.0624 119.789 56.9916C119.626 56.8812 119.453 56.7858 119.273 56.7066L85.5774 41.0958C88.4882 52.8698 92.06 65.3361 94.4765 77.096C94.5222 77.2821 94.583 77.4643 94.6583 77.6406C94.7106 77.7564 94.7764 77.8657 94.8542 77.9663L94.9384 78.034C94.9934 78.0341 95.0482 78.0262 95.1009 78.0105C95.1959 77.974 95.287 77.9283 95.3731 77.8741C95.6141 77.7217 95.8339 77.5383 96.0267 77.3285C96.2668 77.0628 96.484 76.7774 96.6759 76.4752C97.5742 75.0493 101.075 68.9077 102 68.1802C102.279 67.955 102.636 67.8489 102.993 67.885C103.35 67.921 103.678 68.0964 103.905 68.3728L111.835 77.9306L111.836 77.9362Z"/>
<path d="M111.836 77.9362L116.783 73.875C114.434 71.0062 110.726 67.0151 108.78 64.0879C108.742 64.027 108.71 63.9629 108.683 63.8963C108.555 63.5607 108.565 63.1876 108.711 62.8591C108.858 62.5306 109.13 62.2736 109.466 62.1446C112.382 61.0204 115.372 59.9257 118.257 58.7433C118.591 58.6164 118.913 58.4589 119.219 58.273C119.463 58.1225 119.686 57.9425 119.886 57.737C119.953 57.6608 120.014 57.5795 120.068 57.4937C120.095 57.4485 120.115 57.3994 120.127 57.3481L120.079 57.2523C119.997 57.1504 119.899 57.0624 119.789 56.9916C119.626 56.8812 119.453 56.7858 119.273 56.7066L85.5774 41.0958C88.4882 52.8698 92.06 65.3361 94.4765 77.096C94.5222 77.2821 94.583 77.4643 94.6583 77.6406C94.7106 77.7564 94.7764 77.8657 94.8542 77.9663L94.9384 78.034C94.9934 78.0341 95.0482 78.0262 95.1009 78.0105C95.1959 77.974 95.287 77.9283 95.3731 77.8741C95.6141 77.7217 95.8339 77.5383 96.0267 77.3285C96.2668 77.0628 96.484 76.7774 96.6759 76.4752C97.5742 75.0493 101.075 68.9077 102 68.1802C102.279 67.955 102.636 67.8489 102.993 67.885C103.35 67.921 103.678 68.0964 103.905 68.3728L111.835 77.9306L111.836 77.9362Z"/>
</mask>
<path d="M113.6 80.7527C113.449 80.8558 113.29 80.9457 113.124 81.0214C112.948 81.1 112.765 81.1609 112.578 81.2031C112.394 81.2472 112.206 81.2744 112.017 81.2842C111.826 81.2975 111.635 81.2966 111.444 81.2814C111.245 81.2588 111.047 81.2186 110.855 81.1612C110.662 81.1054 110.475 81.0311 110.296 80.9394C110.123 80.8454 109.958 80.7375 109.803 80.6168C109.643 80.4878 109.498 80.3424 109.368 80.183L103.074 72.598L99.4916 78.2546C99.331 78.5132 99.157 78.7632 98.9704 79.0037C98.7817 79.2422 98.5906 79.464 98.3898 79.6586L98.3498 79.6987C98.1589 79.8958 97.9564 80.0814 97.7434 80.2545C97.5399 80.4207 97.3246 80.5721 97.0993 80.7074C96.9301 80.8169 96.7527 80.9132 96.5686 80.9954C96.3936 81.0782 96.2121 81.1465 96.0258 81.1995C95.8328 81.255 95.6361 81.2968 95.4373 81.3246C95.2481 81.3444 95.0578 81.351 94.8678 81.3442C94.6351 81.334 94.404 81.3005 94.178 81.2442C93.9565 81.1905 93.7417 81.1124 93.5376 81.0114C93.3334 80.9098 93.1395 80.7887 92.9588 80.6498C92.7777 80.4982 92.61 80.3315 92.4575 80.1514L92.3796 80.0484L92.3122 79.9383L91.3067 78.0912L91.293 77.9961L81.9284 40.202C81.856 39.9608 81.8197 39.7101 81.8208 39.4583C81.8293 39.2079 81.8765 38.9603 81.9608 38.7243C82.0952 38.3495 82.3197 38.0132 82.6146 37.7448C82.755 37.6146 82.9122 37.5035 83.0819 37.4146C83.2529 37.3212 83.4346 37.2489 83.6231 37.1993C83.8603 37.1375 84.1054 37.1116 84.3503 37.1226C84.6014 37.1357 84.8493 37.1844 85.0866 37.2673L85.2677 37.3325C93.5563 41.1805 101.279 44.7565 108.971 48.3197L120.625 53.7078C120.837 53.8041 121.043 53.9114 121.244 54.0293C121.423 54.1323 121.597 54.2465 121.762 54.3711L121.802 54.4054C121.966 54.5275 122.121 54.6615 122.266 54.8063C122.409 54.9414 122.539 55.0887 122.656 55.2467C122.801 55.4326 122.928 55.6323 123.034 55.8428C123.137 56.0447 123.217 56.257 123.274 56.476C123.332 56.6972 123.365 56.9242 123.372 57.1527C123.382 57.3812 123.372 57.6103 123.34 57.8368C123.276 58.2304 123.15 58.6111 122.965 58.9644C122.877 59.1455 122.773 59.3189 122.656 59.4829C122.536 59.6564 122.403 59.8207 122.258 59.9744C122.077 60.1735 121.882 60.3601 121.675 60.5326C121.453 60.7127 121.221 60.8797 120.98 61.0328C120.734 61.1883 120.453 61.3431 120.209 61.4755C119.938 61.6131 119.659 61.7353 119.375 61.8417C117.866 62.3683 116.373 62.9668 114.89 63.558L113.13 64.2522L119.384 71.8773C119.513 72.0402 119.627 72.2149 119.723 72.3992C120.01 72.947 120.13 73.5669 120.067 74.1821L120.075 74.2381C120.055 74.4251 120.019 74.61 119.966 74.7905C119.909 74.9756 119.838 75.1558 119.752 75.3296C119.663 75.5085 119.557 75.6786 119.436 75.8377C119.314 75.9964 119.179 76.144 119.031 76.2789L118.014 77.1625C116.617 78.447 115.143 79.6459 113.6 80.7527ZM78.1644 27.1584C78.5064 27.6308 78.6522 28.217 78.5712 28.7944C78.4902 29.3718 78.1888 29.8958 77.7298 30.257C77.2708 30.6181 76.6899 30.7885 76.1083 30.7325C75.5267 30.6765 74.9894 30.3984 74.6087 29.9564L68.9915 22.7759C68.6636 22.3034 68.5287 21.7238 68.614 21.1552C68.6994 20.5865 68.9988 20.0716 69.4512 19.7151C69.9036 19.3587 70.475 19.1875 71.0491 19.2365C71.6232 19.2854 72.1569 19.5509 72.5416 19.9787L78.1924 27.1543L78.1644 27.1584ZM73.5391 54.5299C74.013 54.2024 74.594 54.0673 75.1639 54.1521C75.7338 54.2369 76.2497 54.5353 76.6067 54.9863C76.9637 55.4374 77.1348 56.0074 77.0854 56.5802C77.0359 57.1531 76.7695 57.6857 76.3404 58.0698L69.1442 63.7124C68.6703 64.0399 68.0893 64.1749 67.5194 64.0901C66.9495 64.0053 66.4336 63.707 66.0766 63.2559C65.7196 62.8048 65.5485 62.2349 65.5979 61.6621C65.6474 61.0892 65.9138 60.5566 66.3429 60.1725L73.5391 54.5299ZM70.2438 39.9397C70.8204 40.0329 71.3384 40.3447 71.6897 40.81C72.0411 41.2753 72.1986 41.8582 72.1295 42.4369C72.0603 43.0156 71.7698 43.5455 71.3186 43.9159C70.8674 44.2863 70.2904 44.4686 69.7079 44.4248L60.6847 43.3321C60.1251 43.2254 59.6265 42.9123 59.2883 42.455C58.95 41.9978 58.7969 41.43 58.8596 40.865C58.9223 40.2999 59.196 39.779 59.6263 39.406C60.0566 39.0331 60.6119 38.8355 61.1814 38.8527L70.227 39.9421L70.2438 39.9397ZM104.794 35.7012C104.32 36.0287 103.739 36.1637 103.169 36.0789C102.599 35.9941 102.083 35.6958 101.726 35.2447C101.369 34.7936 101.198 34.2237 101.248 33.6508C101.297 33.078 101.563 32.5453 101.992 32.1613L109.189 26.5186C109.663 26.1912 110.244 26.0561 110.813 26.1409C111.383 26.2257 111.899 26.524 112.256 26.9751C112.613 27.4262 112.784 27.9962 112.735 28.569C112.685 29.1418 112.419 29.6745 111.99 30.0585L104.794 35.7012ZM92.7341 25.6845C92.7192 25.9943 92.6406 26.2978 92.5032 26.576C92.3657 26.8543 92.1724 27.1014 91.9351 27.3019C91.6979 27.5025 91.4219 27.6523 91.1242 27.7419C90.8265 27.8315 90.5136 27.859 90.2049 27.8228C89.8962 27.7865 89.5984 27.6873 89.3298 27.5313C89.0613 27.3752 88.8279 27.1657 88.6441 26.9157C88.4603 26.6657 88.33 26.3806 88.2614 26.0782C88.1928 25.7758 88.1874 25.4624 88.2454 25.1577L89.3003 16.15C89.4076 15.5916 89.7219 15.0939 90.1804 14.7562C90.6389 14.4184 91.2081 14.2653 91.7744 14.3274C92.3408 14.3895 92.8627 14.6623 93.2362 15.0913C93.6097 15.5204 93.8074 16.0742 93.7898 16.6424L92.7341 25.6845ZM111.836 77.9362L116.783 73.875C114.434 71.0062 110.726 67.0151 108.78 64.0879C108.742 64.027 108.71 63.9629 108.683 63.8963C108.555 63.5607 108.565 63.1876 108.711 62.8591C108.858 62.5306 109.13 62.2736 109.466 62.1446C112.382 61.0204 115.372 59.9257 118.257 58.7433C118.591 58.6164 118.913 58.4589 119.219 58.273C119.463 58.1225 119.686 57.9425 119.886 57.737C119.953 57.6608 120.014 57.5795 120.068 57.4937C120.095 57.4485 120.115 57.3994 120.127 57.3481L120.079 57.2523C119.997 57.1504 119.899 57.0624 119.789 56.9916C119.626 56.8812 119.453 56.7858 119.273 56.7066L85.5774 41.0958C88.4882 52.8698 92.06 65.3361 94.4765 77.096C94.5222 77.2821 94.583 77.4643 94.6583 77.6406C94.7106 77.7564 94.7764 77.8657 94.8542 77.9663L94.9384 78.034C94.9934 78.0341 95.0482 78.0262 95.1009 78.0105C95.1959 77.974 95.287 77.9283 95.3731 77.8741C95.6141 77.7217 95.8339 77.5383 96.0267 77.3285C96.2668 77.0628 96.484 76.7774 96.6759 76.4752C97.5742 75.0493 101.075 68.9077 102 68.1802C102.279 67.955 102.636 67.8489 102.993 67.885C103.35 67.921 103.678 68.0964 103.905 68.3728L111.835 77.9306L111.836 77.9362Z" fill="#111E6C"/>
<path d="M111.836 77.9362L116.783 73.875C114.434 71.0062 110.726 67.0151 108.78 64.0879C108.742 64.027 108.71 63.9629 108.683 63.8963C108.555 63.5607 108.565 63.1876 108.711 62.8591C108.858 62.5306 109.13 62.2736 109.466 62.1446C112.382 61.0204 115.372 59.9257 118.257 58.7433C118.591 58.6164 118.913 58.4589 119.219 58.273C119.463 58.1225 119.686 57.9425 119.886 57.737C119.953 57.6608 120.014 57.5795 120.068 57.4937C120.095 57.4485 120.115 57.3994 120.127 57.3481L120.079 57.2523C119.997 57.1504 119.899 57.0624 119.789 56.9916C119.626 56.8812 119.453 56.7858 119.273 56.7066L85.5774 41.0958C88.4882 52.8698 92.06 65.3361 94.4765 77.096C94.5222 77.2821 94.583 77.4643 94.6583 77.6406C94.7106 77.7564 94.7764 77.8657 94.8542 77.9663L94.9384 78.034C94.9934 78.0341 95.0482 78.0262 95.1009 78.0105C95.1959 77.974 95.287 77.9283 95.3731 77.8741C95.6141 77.7217 95.8339 77.5383 96.0267 77.3285C96.2668 77.0628 96.484 76.7774 96.6759 76.4752C97.5742 75.0493 101.075 68.9077 102 68.1802C102.279 67.955 102.636 67.8489 102.993 67.885C103.35 67.921 103.678 68.0964 103.905 68.3728L111.835 77.9306L111.836 77.9362Z" fill="white"/>
<path d="M113.6 80.7527C113.449 80.8558 113.29 80.9457 113.124 81.0214C112.948 81.1 112.765 81.1609 112.578 81.2031C112.394 81.2472 112.206 81.2744 112.017 81.2842C111.826 81.2975 111.635 81.2966 111.444 81.2814C111.245 81.2588 111.047 81.2186 110.855 81.1612C110.662 81.1054 110.475 81.0311 110.296 80.9394C110.123 80.8454 109.958 80.7375 109.803 80.6168C109.643 80.4878 109.498 80.3424 109.368 80.183L103.074 72.598L99.4916 78.2546C99.331 78.5132 99.157 78.7632 98.9704 79.0037C98.7817 79.2422 98.5906 79.464 98.3898 79.6586L98.3498 79.6987C98.1589 79.8958 97.9564 80.0814 97.7434 80.2545C97.5399 80.4207 97.3246 80.5721 97.0993 80.7074C96.9301 80.8169 96.7527 80.9132 96.5686 80.9954C96.3936 81.0782 96.2121 81.1465 96.0258 81.1995C95.8328 81.255 95.6361 81.2968 95.4373 81.3246C95.2481 81.3444 95.0578 81.351 94.8678 81.3442C94.6351 81.334 94.404 81.3005 94.178 81.2442C93.9565 81.1905 93.7417 81.1124 93.5376 81.0114C93.3334 80.9098 93.1395 80.7887 92.9588 80.6498C92.7777 80.4982 92.61 80.3315 92.4575 80.1514L92.3796 80.0484L92.3122 79.9383L91.3067 78.0912L91.293 77.9961L81.9284 40.202C81.856 39.9608 81.8197 39.7101 81.8208 39.4583C81.8293 39.2079 81.8765 38.9603 81.9608 38.7243C82.0952 38.3495 82.3197 38.0132 82.6146 37.7448C82.755 37.6146 82.9122 37.5035 83.0819 37.4146C83.2529 37.3212 83.4346 37.2489 83.6231 37.1993C83.8603 37.1375 84.1054 37.1116 84.3503 37.1226C84.6014 37.1357 84.8493 37.1844 85.0866 37.2673L85.2677 37.3325C93.5563 41.1805 101.279 44.7565 108.971 48.3197L120.625 53.7078C120.837 53.8041 121.043 53.9114 121.244 54.0293C121.423 54.1323 121.597 54.2465 121.762 54.3711L121.802 54.4054C121.966 54.5275 122.121 54.6615 122.266 54.8063C122.409 54.9414 122.539 55.0887 122.656 55.2467C122.801 55.4326 122.928 55.6323 123.034 55.8428C123.137 56.0447 123.217 56.257 123.274 56.476C123.332 56.6972 123.365 56.9242 123.372 57.1527C123.382 57.3812 123.372 57.6103 123.34 57.8368C123.276 58.2304 123.15 58.6111 122.965 58.9644C122.877 59.1455 122.773 59.3189 122.656 59.4829C122.536 59.6564 122.403 59.8207 122.258 59.9744C122.077 60.1735 121.882 60.3601 121.675 60.5326C121.453 60.7127 121.221 60.8797 120.98 61.0328C120.734 61.1883 120.453 61.3431 120.209 61.4755C119.938 61.6131 119.659 61.7353 119.375 61.8417C117.866 62.3683 116.373 62.9668 114.89 63.558L113.13 64.2522L119.384 71.8773C119.513 72.0402 119.627 72.2149 119.723 72.3992C120.01 72.947 120.13 73.5669 120.067 74.1821L120.075 74.2381C120.055 74.4251 120.019 74.61 119.966 74.7905C119.909 74.9756 119.838 75.1558 119.752 75.3296C119.663 75.5085 119.557 75.6786 119.436 75.8377C119.314 75.9964 119.179 76.144 119.031 76.2789L118.014 77.1625C116.617 78.447 115.143 79.6459 113.6 80.7527ZM78.1644 27.1584C78.5064 27.6308 78.6522 28.217 78.5712 28.7944C78.4902 29.3718 78.1888 29.8958 77.7298 30.257C77.2708 30.6181 76.6899 30.7885 76.1083 30.7325C75.5267 30.6765 74.9894 30.3984 74.6087 29.9564L68.9915 22.7759C68.6636 22.3034 68.5287 21.7238 68.614 21.1552C68.6994 20.5865 68.9988 20.0716 69.4512 19.7151C69.9036 19.3587 70.475 19.1875 71.0491 19.2365C71.6232 19.2854 72.1569 19.5509 72.5416 19.9787L78.1924 27.1543L78.1644 27.1584ZM73.5391 54.5299C74.013 54.2024 74.594 54.0673 75.1639 54.1521C75.7338 54.2369 76.2497 54.5353 76.6067 54.9863C76.9637 55.4374 77.1348 56.0074 77.0854 56.5802C77.0359 57.1531 76.7695 57.6857 76.3404 58.0698L69.1442 63.7124C68.6703 64.0399 68.0893 64.1749 67.5194 64.0901C66.9495 64.0053 66.4336 63.707 66.0766 63.2559C65.7196 62.8048 65.5485 62.2349 65.5979 61.6621C65.6474 61.0892 65.9138 60.5566 66.3429 60.1725L73.5391 54.5299ZM70.2438 39.9397C70.8204 40.0329 71.3384 40.3447 71.6897 40.81C72.0411 41.2753 72.1986 41.8582 72.1295 42.4369C72.0603 43.0156 71.7698 43.5455 71.3186 43.9159C70.8674 44.2863 70.2904 44.4686 69.7079 44.4248L60.6847 43.3321C60.1251 43.2254 59.6265 42.9123 59.2883 42.455C58.95 41.9978 58.7969 41.43 58.8596 40.865C58.9223 40.2999 59.196 39.779 59.6263 39.406C60.0566 39.0331 60.6119 38.8355 61.1814 38.8527L70.227 39.9421L70.2438 39.9397ZM104.794 35.7012C104.32 36.0287 103.739 36.1637 103.169 36.0789C102.599 35.9941 102.083 35.6958 101.726 35.2447C101.369 34.7936 101.198 34.2237 101.248 33.6508C101.297 33.078 101.563 32.5453 101.992 32.1613L109.189 26.5186C109.663 26.1912 110.244 26.0561 110.813 26.1409C111.383 26.2257 111.899 26.524 112.256 26.9751C112.613 27.4262 112.784 27.9962 112.735 28.569C112.685 29.1418 112.419 29.6745 111.99 30.0585L104.794 35.7012ZM92.7341 25.6845C92.7192 25.9943 92.6406 26.2978 92.5032 26.576C92.3657 26.8543 92.1724 27.1014 91.9351 27.3019C91.6979 27.5025 91.4219 27.6523 91.1242 27.7419C90.8265 27.8315 90.5136 27.859 90.2049 27.8228C89.8962 27.7865 89.5984 27.6873 89.3298 27.5313C89.0613 27.3752 88.8279 27.1657 88.6441 26.9157C88.4603 26.6657 88.33 26.3806 88.2614 26.0782C88.1928 25.7758 88.1874 25.4624 88.2454 25.1577L89.3003 16.15C89.4076 15.5916 89.7219 15.0939 90.1804 14.7562C90.6389 14.4184 91.2081 14.2653 91.7744 14.3274C92.3408 14.3895 92.8627 14.6623 93.2362 15.0913C93.6097 15.5204 93.8074 16.0742 93.7898 16.6424L92.7341 25.6845ZM111.836 77.9362L116.783 73.875C114.434 71.0062 110.726 67.0151 108.78 64.0879C108.742 64.027 108.71 63.9629 108.683 63.8963C108.555 63.5607 108.565 63.1876 108.711 62.8591C108.858 62.5306 109.13 62.2736 109.466 62.1446C112.382 61.0204 115.372 59.9257 118.257 58.7433C118.591 58.6164 118.913 58.4589 119.219 58.273C119.463 58.1225 119.686 57.9425 119.886 57.737C119.953 57.6608 120.014 57.5795 120.068 57.4937C120.095 57.4485 120.115 57.3994 120.127 57.3481L120.079 57.2523C119.997 57.1504 119.899 57.0624 119.789 56.9916C119.626 56.8812 119.453 56.7858 119.273 56.7066L85.5774 41.0958C88.4882 52.8698 92.06 65.3361 94.4765 77.096C94.5222 77.2821 94.583 77.4643 94.6583 77.6406C94.7106 77.7564 94.7764 77.8657 94.8542 77.9663L94.9384 78.034C94.9934 78.0341 95.0482 78.0262 95.1009 78.0105C95.1959 77.974 95.287 77.9283 95.3731 77.8741C95.6141 77.7217 95.8339 77.5383 96.0267 77.3285C96.2668 77.0628 96.484 76.7774 96.6759 76.4752C97.5742 75.0493 101.075 68.9077 102 68.1802C102.279 67.955 102.636 67.8489 102.993 67.885C103.35 67.921 103.678 68.0964 103.905 68.3728L111.835 77.9306L111.836 77.9362Z" stroke="#111E6C" stroke-width="1.94976" mask="url(#path-5-outside-2_125_64)"/>
<path d="M111.836 77.9362L116.783 73.875C114.434 71.0062 110.726 67.0151 108.78 64.0879C108.742 64.027 108.71 63.9629 108.683 63.8963C108.555 63.5607 108.565 63.1876 108.711 62.8591C108.858 62.5306 109.13 62.2736 109.466 62.1446C112.382 61.0204 115.372 59.9257 118.257 58.7433C118.591 58.6164 118.913 58.4589 119.219 58.273C119.463 58.1225 119.686 57.9425 119.886 57.737C119.953 57.6608 120.014 57.5795 120.068 57.4937C120.095 57.4485 120.115 57.3994 120.127 57.3481L120.079 57.2523C119.997 57.1504 119.899 57.0624 119.789 56.9916C119.626 56.8812 119.453 56.7858 119.273 56.7066L85.5774 41.0958C88.4882 52.8698 92.06 65.3361 94.4765 77.096C94.5222 77.2821 94.583 77.4643 94.6583 77.6406C94.7106 77.7564 94.7764 77.8657 94.8542 77.9663L94.9384 78.034C94.9934 78.0341 95.0482 78.0262 95.1009 78.0105C95.1959 77.974 95.287 77.9283 95.3731 77.8741C95.6141 77.7217 95.8339 77.5383 96.0267 77.3285C96.2668 77.0628 96.484 76.7774 96.6759 76.4752C97.5742 75.0493 101.075 68.9077 102 68.1802C102.279 67.955 102.636 67.8489 102.993 67.885C103.35 67.921 103.678 68.0964 103.905 68.3728L111.835 77.9306L111.836 77.9362Z" stroke="#111E6C" stroke-width="1.94976" mask="url(#path-5-outside-2_125_64)"/>
<rect width="145" height="145" rx="27" fill="url(#paint0_linear_125_64)" style="mix-blend-mode:lighten"/>
</g>
<defs>
<linearGradient id="paint0_linear_125_64" x1="-12.5" y1="44.5" x2="98.6922" y2="120.29" gradientUnits="userSpaceOnUse">
<stop stop-color="#9962E6"/>
<stop offset="0.281884" stop-color="#5500D3"/>
<stop offset="0.637296" stop-color="#1E00B3"/>
<stop offset="1" stop-color="#00ADB3"/>
</linearGradient>
<clipPath id="clip0_125_64">
<rect width="145" height="145" fill="white"/>
</clipPath>
<clipPath id="clip1_125_64">
<rect width="91.6386" height="91.6386" fill="white" transform="translate(15.9983 37.98)"/>
</clipPath>
</defs>
</svg>
